<svg width="121" height="121" viewBox="0 0 121 121" fill="none" xmlns="http://www.w3.org/2000/svg">
<path d="M107.556 0C111.121 0 114.541 1.41646 117.062 3.93779C119.584 6.45911 121 9.87876 121 13.4444V107.556C121 111.121 119.584 114.541 117.062 117.062C114.541 119.584 111.121 121 107.556 121H13.4444C9.87876 121 6.45911 119.584 3.93779 117.062C1.41646 114.541 0 111.121 0 107.556V13.4444C0 9.87876 1.41646 6.45911 3.93779 3.93779C6.45911 1.41646 9.87876 0 13.4444 0H107.556ZM104.194 104.194V68.5667C104.194 62.7546 101.886 57.1806 97.7759 53.0708C93.6661 48.9611 88.0921 46.6522 82.28 46.6522C76.5661 46.6522 69.9111 50.1478 66.6844 55.3911V47.9294H47.9294V104.194H66.6844V71.0539C66.6844 65.8778 70.8522 61.6428 76.0283 61.6428C78.5243 61.6428 80.9181 62.6343 82.683 64.3992C84.4479 66.1642 85.4394 68.5579 85.4394 71.0539V104.194H104.194ZM26.0822 37.3756C29.0774 37.3756 31.9499 36.1857 34.0678 34.0678C36.1857 31.9499 37.3756 29.0774 37.3756 26.0822C37.3756 19.8306 32.3339 14.7217 26.0822 14.7217C23.0692 14.7217 20.1796 15.9186 18.0491 18.0491C15.9186 20.1796 14.7217 23.0692 14.7217 26.0822C14.7217 32.3339 19.8306 37.3756 26.0822 37.3756ZM35.4261 104.194V47.9294H16.8056V104.194H35.4261Z" fill="#EF8843"/>
</svg>
