<svg width="132" height="132" viewBox="0 0 132 132" fill="none" xmlns="http://www.w3.org/2000/svg">
<g clip-path="url(#clip0_19_42)">
<path d="M0 0H132V132H0V0Z" fill="#F7DF1E"/>
<path d="M34.7078 110.309L44.8089 104.195C46.7579 107.651 48.5307 110.574 52.783 110.574C56.859 110.574 59.4294 108.98 59.4294 102.778V60.6009H71.8338V102.953C71.8338 115.801 64.3026 121.649 53.3146 121.649C43.3914 121.649 37.6314 116.51 34.7073 110.308M78.5715 108.979L88.6716 103.132C91.3306 107.474 94.7864 110.663 100.9 110.663C106.04 110.663 109.317 108.094 109.317 104.549C109.317 100.296 105.95 98.7896 100.279 96.3094L97.1789 94.9791C88.2292 91.1702 82.2928 86.3852 82.2928 76.2841C82.2928 66.9802 89.3811 59.8914 100.457 59.8914C108.343 59.8914 114.014 62.6386 118.09 69.8156L108.431 76.0186C106.304 72.2086 104.001 70.7025 100.457 70.7025C96.8236 70.7025 94.5198 73.0063 94.5198 76.0186C94.5198 79.7398 96.8236 81.247 102.14 83.5508L105.241 84.8796C115.785 89.399 121.722 94.0061 121.722 104.372C121.722 115.538 112.95 121.651 101.165 121.651C89.6466 121.651 82.2036 116.157 78.571 108.98" fill="black"/>
</g>
<defs>
<clipPath id="clip0_19_42">
<rect width="132" height="132" fill="white"/>
</clipPath>
</defs>
</svg>
