<svg width="119" height="119" viewBox="0 0 119 119" fill="none" xmlns="http://www.w3.org/2000/svg">
<path d="M59.5 0C26.6262 0 0 26.6262 0 59.5C0 85.8287 17.0319 108.067 40.6831 115.951C43.6581 116.471 44.7737 114.686 44.7737 113.124C44.7737 111.711 44.6994 107.026 44.6994 102.043C29.75 104.794 25.8825 98.3981 24.6925 95.0512C24.0231 93.3406 21.1225 88.06 18.5938 86.6469C16.5112 85.5312 13.5362 82.7794 18.5194 82.705C23.205 82.6306 26.5519 87.0187 27.6675 88.8037C33.0225 97.8031 41.5756 95.2744 44.9969 93.7125C45.5175 89.845 47.0794 87.2419 48.79 85.7544C35.5512 84.2669 21.7175 79.135 21.7175 56.3762C21.7175 49.9056 24.0231 44.5506 27.8163 40.3856C27.2213 38.8981 25.1387 32.7994 28.4112 24.6181C28.4112 24.6181 33.3944 23.0563 44.7737 30.7169C49.5337 29.3781 54.5913 28.7087 59.6488 28.7087C64.7063 28.7087 69.7638 29.3781 74.5238 30.7169C85.9031 22.9819 90.8863 24.6181 90.8863 24.6181C94.1588 32.7994 92.0763 38.8981 91.4813 40.3856C95.2744 44.5506 97.58 49.8312 97.58 56.3762C97.58 79.2094 83.6719 84.2669 70.4331 85.7544C72.59 87.6137 74.4494 91.1838 74.4494 96.7619C74.4494 104.72 74.375 111.116 74.375 113.124C74.375 114.686 75.4906 116.546 78.4656 115.951C90.2781 111.964 100.543 104.373 107.814 94.2462C115.086 84.1194 118.998 71.967 119 59.5C119 26.6262 92.3738 0 59.5 0Z" fill="#EF8843"/>
</svg>
