<svg width="162" height="162" viewBox="0 0 162 162" fill="none" xmlns="http://www.w3.org/2000/svg">
<path d="M29.8789 137.705L18.5085 10.125H143.492L132.106 137.685L80.9241 151.875L29.8789 137.705Z" fill="#1572B6"/>
<path d="M81 141.031L122.361 129.565L132.091 20.5588H81V141.031Z" fill="#33A9DC"/>
<path d="M81 66.7794H101.706L103.133 50.7566H81V35.1084H120.234L119.86 39.3052L116.017 82.4276H81V66.7794Z" fill="white"/>
<path d="M81.0961 107.416L81.0253 107.436L63.6002 102.728L62.4864 90.2491H46.7775L48.9695 114.817L81.0202 123.717L81.0961 123.697V107.416Z" fill="#EBEBEB"/>
<path d="M100.374 81.7644L98.491 102.718L81.0405 107.426V123.707L113.117 114.817L113.354 112.175L116.073 81.7644H100.374Z" fill="white"/>
<path d="M81.0556 35.1084V50.7566H43.259L42.9451 47.2382L42.2313 39.3052L41.8567 35.1084H81.0556ZM80.9999 66.7794V82.4276H63.7925L63.4786 78.9092L62.7699 70.9762L62.3953 66.7794H80.9999Z" fill="#EBEBEB"/>
</svg>
